<svg width="307" height="300" viewBox="0 0 307 300" fill="none" xmlns="http://www.w3.org/2000/svg">
<path fill-rule="evenodd" clip-rule="evenodd" d="M153.5 30C85.6794 30 30.7 83.7258 30.7 150C30.7 216.274 85.6794 270 153.5 270C221.321 270 276.3 216.274 276.3 150C276.3 83.7258 221.321 30 153.5 30ZM0 150C0 67.1573 68.7243 0 153.5 0C238.276 0 307 67.1573 307 150C307 232.843 238.276 300 153.5 300C68.7243 300 0 232.843 0 150ZM153.5 60C161.978 60 168.85 66.7157 168.85 75V150C168.85 158.284 161.978 165 153.5 165C145.022 165 138.15 158.284 138.15 150V75C138.15 66.7157 145.022 60 153.5 60Z" fill="#212529"/>
<path fill-rule="evenodd" clip-rule="evenodd" d="M153.5 30C85.6794 30 30.7 83.7258 30.7 150C30.7 216.274 85.6794 270 153.5 270C221.321 270 276.3 216.274 276.3 150C276.3 83.7258 221.321 30 153.5 30ZM0 150C0 67.1573 68.7243 0 153.5 0C238.276 0 307 67.1573 307 150C307 232.843 238.276 300 153.5 300C68.7243 300 0 232.843 0 150ZM153.5 60C161.978 60 168.85 66.7157 168.85 75V150C168.85 158.284 161.978 165 153.5 165C145.022 165 138.15 158.284 138.15 150V75C138.15 66.7157 145.022 60 153.5 60Z" fill="#ADD8E6"/>
<path fill-rule="evenodd" clip-rule="evenodd" d="M153.5 30C85.6794 30 30.7 83.7258 30.7 150C30.7 216.274 85.6794 270 153.5 270C221.321 270 276.3 216.274 276.3 150C276.3 83.7258 221.321 30 153.5 30ZM0 150C0 67.1573 68.7243 0 153.5 0C238.276 0 307 67.1573 307 150C307 232.843 238.276 300 153.5 300C68.7243 300 0 232.843 0 150ZM153.5 60C161.978 60 168.85 66.7157 168.85 75V150C168.85 158.284 161.978 165 153.5 165C145.022 165 138.15 158.284 138.15 150V75C138.15 66.7157 145.022 60 153.5 60Z" fill="#212529"/>
<path fill-rule="evenodd" clip-rule="evenodd" d="M153.5 30C85.6794 30 30.7 83.7258 30.7 150C30.7 216.274 85.6794 270 153.5 270C221.321 270 276.3 216.274 276.3 150C276.3 83.7258 221.321 30 153.5 30ZM0 150C0 67.1573 68.7243 0 153.5 0C238.276 0 307 67.1573 307 150C307 232.843 238.276 300 153.5 300C68.7243 300 0 232.843 0 150ZM153.5 60C161.978 60 168.85 66.7157 168.85 75V150C168.85 158.284 161.978 165 153.5 165C145.022 165 138.15 158.284 138.15 150V75C138.15 66.7157 145.022 60 153.5 60Z" fill="#ADD8E6"/>
</svg>
